<?xml version="1.0" encoding="UTF-8"?>
<svg id="Ebene_1" xmlns="http://www.w3.org/2000/svg" xmlns:xlink="http://www.w3.org/1999/xlink" version="1.1" viewBox="0 0 265 46">
  <!-- Generator: Adobe Illustrator 29.8.4, SVG Export Plug-In . SVG Version: 2.1.1 Build 6)  -->
  <defs>
    <style>
      .st0, .st1 {
        fill: #2b6599;
      }

      .st2 {
        fill: url(#Unbenannter_Verlauf);
      }

      .st3 {
        fill: url(#Unbenannter_Verlauf_2);
      }

      .st4 {
        fill: url(#Unbenannter_Verlauf_4);
      }

      .st5 {
        fill: url(#Unbenannter_Verlauf_3);
      }

      .st6 {
        fill: url(#Unbenannter_Verlauf_8);
      }

      .st7 {
        fill: url(#Unbenannter_Verlauf_6);
      }

      .st8 {
        fill: url(#Unbenannter_Verlauf_7);
      }

      .st9 {
        fill: url(#Unbenannter_Verlauf_5);
      }

      .st10 {
        fill: url(#Unbenannter_Verlauf_9);
      }

      .st11 {
        fill: #7d919c;
      }

      .st1 {
        fill-rule: evenodd;
      }

      .st12 {
        fill: url(#Unbenannter_Verlauf_14);
      }

      .st13 {
        fill: url(#Unbenannter_Verlauf_15);
      }

      .st14 {
        fill: url(#Unbenannter_Verlauf_12);
      }

      .st15 {
        fill: url(#Unbenannter_Verlauf_13);
      }

      .st16 {
        fill: url(#Unbenannter_Verlauf_16);
      }

      .st17 {
        fill: url(#Unbenannter_Verlauf_17);
      }

      .st18 {
        fill: url(#Unbenannter_Verlauf_10);
      }

      .st19 {
        fill: url(#Unbenannter_Verlauf_11);
      }
    </style>
    <linearGradient id="Unbenannter_Verlauf" data-name="Unbenannter Verlauf" x1="0" y1="46.3" x2="77.5" y2="46.3" gradientTransform="translate(0 48) scale(1 -1)" gradientUnits="userSpaceOnUse">
      <stop offset="0" stop-color="#0046f9"/>
      <stop offset=".2" stop-color="#16dbf6"/>
      <stop offset=".4" stop-color="#ffe713"/>
      <stop offset=".6" stop-color="#ff7917"/>
      <stop offset=".8" stop-color="#fb0000"/>
      <stop offset="1" stop-color="#b30000"/>
    </linearGradient>
    <linearGradient id="Unbenannter_Verlauf_2" data-name="Unbenannter Verlauf 2" x1="0" y1="43.3" x2="77.5" y2="43.3" gradientTransform="translate(0 48) scale(1 -1)" gradientUnits="userSpaceOnUse">
      <stop offset="0" stop-color="#0046f9"/>
      <stop offset=".2" stop-color="#16dbf6"/>
      <stop offset=".4" stop-color="#ffe713"/>
      <stop offset=".6" stop-color="#ff7917"/>
      <stop offset=".8" stop-color="#fb0000"/>
      <stop offset="1" stop-color="#b30000"/>
    </linearGradient>
    <linearGradient id="Unbenannter_Verlauf_3" data-name="Unbenannter Verlauf 3" x1="0" y1="40.1" x2="77.5" y2="40.1" gradientTransform="translate(0 48) scale(1 -1)" gradientUnits="userSpaceOnUse">
      <stop offset="0" stop-color="#0046f9"/>
      <stop offset=".2" stop-color="#16dbf6"/>
      <stop offset=".4" stop-color="#ffe713"/>
      <stop offset=".6" stop-color="#ff7917"/>
      <stop offset=".8" stop-color="#fb0000"/>
      <stop offset="1" stop-color="#b30000"/>
    </linearGradient>
    <linearGradient id="Unbenannter_Verlauf_4" data-name="Unbenannter Verlauf 4" x1="0" y1="36.9" x2="77.5" y2="36.9" gradientTransform="translate(0 48) scale(1 -1)" gradientUnits="userSpaceOnUse">
      <stop offset="0" stop-color="#0046f9"/>
      <stop offset=".2" stop-color="#16dbf6"/>
      <stop offset=".4" stop-color="#ffe713"/>
      <stop offset=".6" stop-color="#ff7917"/>
      <stop offset=".8" stop-color="#fb0000"/>
      <stop offset="1" stop-color="#b30000"/>
    </linearGradient>
    <linearGradient id="Unbenannter_Verlauf_5" data-name="Unbenannter Verlauf 5" x1="0" y1="33.7" x2="77.5" y2="33.7" gradientTransform="translate(0 48) scale(1 -1)" gradientUnits="userSpaceOnUse">
      <stop offset="0" stop-color="#0046f9"/>
      <stop offset=".2" stop-color="#16dbf6"/>
      <stop offset=".4" stop-color="#ffe713"/>
      <stop offset=".6" stop-color="#ff7917"/>
      <stop offset=".8" stop-color="#fb0000"/>
      <stop offset="1" stop-color="#b30000"/>
    </linearGradient>
    <linearGradient id="Unbenannter_Verlauf_6" data-name="Unbenannter Verlauf 6" x1="0" y1="30.5" x2="77.5" y2="30.5" gradientTransform="translate(0 48) scale(1 -1)" gradientUnits="userSpaceOnUse">
      <stop offset="0" stop-color="#0046f9"/>
      <stop offset=".2" stop-color="#16dbf6"/>
      <stop offset=".4" stop-color="#ffe713"/>
      <stop offset=".6" stop-color="#ff7917"/>
      <stop offset=".8" stop-color="#fb0000"/>
      <stop offset="1" stop-color="#b30000"/>
    </linearGradient>
    <linearGradient id="Unbenannter_Verlauf_7" data-name="Unbenannter Verlauf 7" x1="0" y1="27.4" x2="77.5" y2="27.4" gradientTransform="translate(0 48) scale(1 -1)" gradientUnits="userSpaceOnUse">
      <stop offset="0" stop-color="#0046f9"/>
      <stop offset=".2" stop-color="#16dbf6"/>
      <stop offset=".4" stop-color="#ffe713"/>
      <stop offset=".6" stop-color="#ff7917"/>
      <stop offset=".8" stop-color="#fb0000"/>
      <stop offset="1" stop-color="#b30000"/>
    </linearGradient>
    <linearGradient id="Unbenannter_Verlauf_8" data-name="Unbenannter Verlauf 8" x1="0" y1="24.2" x2="77.5" y2="24.2" gradientTransform="translate(0 48) scale(1 -1)" gradientUnits="userSpaceOnUse">
      <stop offset="0" stop-color="#0046f9"/>
      <stop offset=".2" stop-color="#16dbf6"/>
      <stop offset=".4" stop-color="#ffe713"/>
      <stop offset=".6" stop-color="#ff7917"/>
      <stop offset=".8" stop-color="#fb0000"/>
      <stop offset="1" stop-color="#b30000"/>
    </linearGradient>
    <linearGradient id="Unbenannter_Verlauf_9" data-name="Unbenannter Verlauf 9" x1="0" y1="21" x2="77.5" y2="21" gradientTransform="translate(0 48) scale(1 -1)" gradientUnits="userSpaceOnUse">
      <stop offset="0" stop-color="#0046f9"/>
      <stop offset=".2" stop-color="#16dbf6"/>
      <stop offset=".4" stop-color="#ffe713"/>
      <stop offset=".6" stop-color="#ff7917"/>
      <stop offset=".8" stop-color="#fb0000"/>
      <stop offset="1" stop-color="#b30000"/>
    </linearGradient>
    <linearGradient id="Unbenannter_Verlauf_10" data-name="Unbenannter Verlauf 10" x1="0" y1="17.8" x2="77.5" y2="17.8" gradientTransform="translate(0 48) scale(1 -1)" gradientUnits="userSpaceOnUse">
      <stop offset="0" stop-color="#0046f9"/>
      <stop offset=".2" stop-color="#16dbf6"/>
      <stop offset=".4" stop-color="#ffe713"/>
      <stop offset=".6" stop-color="#ff7917"/>
      <stop offset=".8" stop-color="#fb0000"/>
      <stop offset="1" stop-color="#b30000"/>
    </linearGradient>
    <linearGradient id="Unbenannter_Verlauf_11" data-name="Unbenannter Verlauf 11" x1="0" y1="14.6" x2="77.5" y2="14.6" gradientTransform="translate(0 48) scale(1 -1)" gradientUnits="userSpaceOnUse">
      <stop offset="0" stop-color="#0046f9"/>
      <stop offset=".2" stop-color="#16dbf6"/>
      <stop offset=".4" stop-color="#ffe713"/>
      <stop offset=".6" stop-color="#ff7917"/>
      <stop offset=".8" stop-color="#fb0000"/>
      <stop offset="1" stop-color="#b30000"/>
    </linearGradient>
    <linearGradient id="Unbenannter_Verlauf_12" data-name="Unbenannter Verlauf 12" x1="0" y1="11.4" x2="77.5" y2="11.4" gradientTransform="translate(0 48) scale(1 -1)" gradientUnits="userSpaceOnUse">
      <stop offset="0" stop-color="#0046f9"/>
      <stop offset=".2" stop-color="#16dbf6"/>
      <stop offset=".4" stop-color="#ffe713"/>
      <stop offset=".6" stop-color="#ff7917"/>
      <stop offset=".8" stop-color="#fb0000"/>
      <stop offset="1" stop-color="#b30000"/>
    </linearGradient>
    <linearGradient id="Unbenannter_Verlauf_13" data-name="Unbenannter Verlauf 13" x1="0" y1="8.4" x2="77.5" y2="8.4" gradientTransform="translate(0 48) scale(1 -1)" gradientUnits="userSpaceOnUse">
      <stop offset="0" stop-color="#0046f9"/>
      <stop offset=".2" stop-color="#16dbf6"/>
      <stop offset=".4" stop-color="#ffe713"/>
      <stop offset=".6" stop-color="#ff7917"/>
      <stop offset=".8" stop-color="#fb0000"/>
      <stop offset="1" stop-color="#b30000"/>
    </linearGradient>
    <linearGradient id="Unbenannter_Verlauf_14" data-name="Unbenannter Verlauf 14" x1="0" y1="46.5" x2="77.5" y2="46.5" gradientTransform="translate(0 48) scale(1 -1)" gradientUnits="userSpaceOnUse">
      <stop offset="0" stop-color="#0046f9"/>
      <stop offset=".2" stop-color="#16dbf6"/>
      <stop offset=".4" stop-color="#ffe713"/>
      <stop offset=".6" stop-color="#ff7917"/>
      <stop offset=".8" stop-color="#fb0000"/>
      <stop offset="1" stop-color="#b30000"/>
    </linearGradient>
    <linearGradient id="Unbenannter_Verlauf_15" data-name="Unbenannter Verlauf 15" x1="0" y1="7.9" x2="77.5" y2="7.9" gradientTransform="translate(0 48) scale(1 -1)" gradientUnits="userSpaceOnUse">
      <stop offset="0" stop-color="#0046f9"/>
      <stop offset=".2" stop-color="#16dbf6"/>
      <stop offset=".4" stop-color="#ffe713"/>
      <stop offset=".6" stop-color="#ff7917"/>
      <stop offset=".8" stop-color="#fb0000"/>
      <stop offset="1" stop-color="#b30000"/>
    </linearGradient>
    <linearGradient id="Unbenannter_Verlauf_16" data-name="Unbenannter Verlauf 16" x1="0" y1="46.5" x2="77.5" y2="46.5" gradientTransform="translate(0 48) scale(1 -1)" gradientUnits="userSpaceOnUse">
      <stop offset="0" stop-color="#0046f9"/>
      <stop offset=".2" stop-color="#16dbf6"/>
      <stop offset=".4" stop-color="#ffe713"/>
      <stop offset=".6" stop-color="#ff7917"/>
      <stop offset=".8" stop-color="#fb0000"/>
      <stop offset="1" stop-color="#b30000"/>
    </linearGradient>
    <linearGradient id="Unbenannter_Verlauf_17" data-name="Unbenannter Verlauf 17" x1="0" y1="8.2" x2="77.5" y2="8.2" gradientTransform="translate(0 48) scale(1 -1)" gradientUnits="userSpaceOnUse">
      <stop offset="0" stop-color="#0046f9"/>
      <stop offset=".2" stop-color="#16dbf6"/>
      <stop offset=".4" stop-color="#ffe713"/>
      <stop offset=".6" stop-color="#ff7917"/>
      <stop offset=".8" stop-color="#fb0000"/>
      <stop offset="1" stop-color="#b30000"/>
    </linearGradient>
  </defs>
  <path class="st2" d="M68.4,2.7c-2.6-1.3-5.6-2-8.7-2s-6.1.7-8.7,2h17.4Z"/>
  <path class="st3" d="M48.8,3.9c.2-.1.4-.3.6-.4h20.3c1.2.7,2.2,1.5,3.2,2.4h-26.8c.1-.1.3-.3.5-.4h-19.9c0,0,.2-.2.3-.2H7.5c.3-.3.7-.5,1.1-.8h19.6c.3-.2.5-.4.8-.6h19.9Z"/>
  <path class="st5" d="M75.9,9.1c-.6-.8-1.3-1.6-2-2.4h-28.5c-.1.1-.3.3-.4.4h-19.9c-.2.2-.3.4-.5.6H5c-.2.3-.5.5-.7.8h19.7c0,0-.1.2-.2.2h19.9c0,.1-.2.3-.3.4h32.5Z"/>
  <path class="st4" d="M42.6,10.3c0-.1.2-.3.2-.4h33.5c.5.8.9,1.6,1.3,2.4h-36.2c0-.1.1-.3.2-.4h-19.9c0,0,0-.2.1-.2H2.2c.1-.3.3-.5.4-.8h19.7c.1-.2.2-.4.3-.6h19.9Z"/>
  <path class="st9" d="M78.9,15.5c-.2-.8-.5-1.6-.8-2.4h-36.9c0,.1-.1.3-.2.4h-19.9c0,.2-.1.4-.2.6H1.2c0,.3-.2.5-.3.8h19.8c0,0,0,.2,0,.2h19.9c0,.1,0,.3-.1.4h38.5Z"/>
  <path class="st7" d="M40.1,16.7c0-.1,0-.3,0-.4h38.9c.2.8.3,1.6.4,2.4h-39.7c0-.1,0-.3,0-.4h-19.9c0,0,0-.2,0-.2H.2c0-.3,0-.5.1-.8h19.8c0-.2,0-.4.1-.6h19.9Z"/>
  <path class="st8" d="M79.6,20.6c0,.4,0,.8,0,1.2h-39.8c0-.1,0-.3,0-.4h-19.9c0,0,0-.2,0-.2H0c0-.1,0-.3,0-.4s0-.3,0-.4h19.8c0-.2,0-.4,0-.6h19.9c0-.1,0-.3,0-.4h39.8c0,.4,0,.8,0,1.2Z"/>
  <path class="st6" d="M79.5,22.6c0,.8-.2,1.6-.4,2.4h-38.9c0-.1,0-.3,0-.4h-19.9c0,0,0-.2,0-.2H.3c0-.3,0-.5-.1-.8h19.8c0-.2,0-.4,0-.6h19.9c0-.1,0-.3,0-.4h39.7Z"/>
  <path class="st10" d="M41.1,27.8c0,.1.1.3.2.4h36.9c.3-.8.6-1.6.8-2.4h-38.5c0,.1,0,.3.1.4h-19.9c0,.2.1.4.2.6H.9c0,.3.2.5.3.8h19.9c0,0,0,.2,0,.2h19.9Z"/>
  <path class="st18" d="M77.7,29c-.4.8-.8,1.6-1.3,2.4h-33.5c0-.1-.2-.3-.2-.4h-19.9c0,0,0-.2-.1-.2H2.7c-.2-.3-.3-.5-.4-.8h19.9c0-.2-.2-.4-.3-.6h19.9c0-.1-.1-.3-.2-.4h36.2Z"/>
  <path class="st19" d="M45.1,34.2c.1.1.3.3.4.4h28.5c.7-.7,1.4-1.5,2-2.4h-32.5c0,.1.2.3.3.4h-19.9c.1.2.3.4.4.6H4.3c.2.3.4.5.7.8h19.9c0,0,.1.2.2.2h19.9Z"/>
  <path class="st14" d="M73.1,35.4c-1,.9-2.1,1.7-3.2,2.4h-20.3c-.2-.1-.4-.3-.6-.4h-19.9c-.1,0-.2-.2-.4-.2H8.5c-.4-.3-.7-.5-1.1-.8h20c-.2-.2-.5-.4-.7-.6h19.9c-.2-.1-.3-.3-.5-.4h26.8Z"/>
  <path class="st15" d="M51,38.6c2.6,1.3,5.6,2,8.7,2s6.1-.7,8.7-2h-17.4Z"/>
  <path class="st12" d="M26.7,2.1c-2.1-.8-4.4-1.2-6.8-1.2s-4.7.4-6.8,1.2h13.6Z"/>
  <path class="st13" d="M13.1,39.5c2.1.8,4.4,1.2,6.8,1.2s4.7-.4,6.8-1.2h-13.6Z"/>
  <path class="st16" d="M39.7.7c2.8,0,5.4.6,7.8,1.6h-15.6c2.4-1,5-1.6,7.8-1.6Z"/>
  <path class="st17" d="M39.7,40.6c-2.8,0-5.4-.6-7.8-1.6h15.6c-2.4,1-5,1.6-7.8,1.6Z"/>
  <path class="st11" d="M259.5,45.2v-7.1h1v7.1h-1ZM263.6,45.2l-3.4-3.5h0c0-.1,3.4-3.6,3.4-3.6h1.3l-3.8,3.9v-.6c.1,0,3.8,3.8,3.8,3.8h-1.4Z"/>
  <path class="st11" d="M253.1,45.2v-7.1h2.6c.5,0,.9.1,1.3.3.4.2.7.5.9.8.2.3.3.7.3,1.2s-.1.8-.3,1.2c-.2.3-.5.6-.9.8-.4.2-.8.3-1.3.3h-1.7v-1h1.6c.5,0,.8-.1,1.1-.3.3-.2.4-.6.4-1s-.1-.8-.4-1c-.3-.2-.6-.3-1.1-.3h-1.6l.2-.2v6.3h-1ZM257,45.2l-1.7-2.9h1.1l1.7,2.9h-1.1Z"/>
  <path class="st11" d="M244.6,41.6c0-.5,0-1,.3-1.5.2-.4.4-.8.8-1.2.3-.3.7-.6,1.2-.8.5-.2.9-.3,1.5-.3s1,0,1.4.3c.4.2.8.4,1.2.8.3.3.6.7.8,1.2.2.4.3.9.3,1.5s0,1-.3,1.4c-.2.4-.4.8-.8,1.2-.3.3-.7.6-1.2.8s-.9.3-1.4.3-1,0-1.5-.3c-.4-.2-.8-.4-1.2-.8-.3-.3-.6-.7-.8-1.2-.2-.4-.3-.9-.3-1.4ZM245.6,41.6c0,.5.1,1,.3,1.4.2.4.5.7.9.9.4.2.8.3,1.3.3s.9-.1,1.3-.3c.4-.2.7-.5.9-.9.2-.4.3-.9.3-1.4s-.1-1-.3-1.4c-.2-.4-.5-.7-.9-.9-.4-.2-.8-.3-1.3-.3s-.9.1-1.3.3c-.4.2-.7.5-.9.9-.2.4-.3.8-.3,1.4Z"/>
  <path class="st11" d="M241.1,45.2l-1.9-6.3-.2-.8h1l2,6.6h-.5c0-.1,1.7-6.6,1.7-6.6h1.1l-1.9,7.1h-1.2ZM236.5,45.2l-1.9-7.1h1.1l1.7,6.5h-.5c0,.1,2-6.5,2-6.5h1l-.2.8-1.9,6.3h-1.2Z"/>
  <path class="st11" d="M230.9,45.2v-6.3h1v6.3h-1ZM228.7,39.1v-1h5.6v1h-5.6Z"/>
  <path class="st11" d="M224.6,42.1v-1h2.9v1h-2.9ZM224.5,39.1l.2-.3v5.6l-.3-.2h3.6v1h-4.3v-7.1h4.3v1h-3.5Z"/>
  <path class="st11" d="M221.1,45.2l-4.6-5.9.6-.2v6.1h-1v-7.1h.9l4.4,5.7h-.4v-5.7h1v7.1h-.9Z"/>
  <path class="st0" d="M169,11.6v19.2h5.7V11.6h-5.7Z"/>
  <path class="st0" d="M169.4,3.1c-.6.6-.9,1.4-.9,2.5s.3,1.8.9,2.4c.6.6,1.4.9,2.5.9s1.8-.3,2.4-.9c.6-.6.9-1.4.9-2.4s-.3-1.8-.9-2.5c-.6-.6-1.4-.9-2.4-.9s-1.8.3-2.5.9Z"/>
  <path class="st0" d="M201.4,30.4c1.4.6,2.8.9,4.3.9s2.8-.3,3.9-.8c1.1-.5,2.1-1.3,2.7-2.2.7-1,1-2.1,1-3.3s-.5-2.9-1.6-3.9c-1-1-2.7-1.7-5.1-2.3-1.4-.3-2.3-.6-2.8-.9-.5-.3-.7-.6-.7-1s.2-.7.6-.9c.4-.2.9-.3,1.4-.3,1,0,1.9.2,2.7.5.8.4,1.5.8,2.1,1.3l3.5-3c-.8-1-1.9-1.8-3.2-2.5-1.3-.7-2.8-1.1-4.7-1.1s-2.9.3-4,.9c-1.1.6-2,1.3-2.6,2.3-.6.9-.9,2-.9,3.1s.5,2.9,1.4,3.8c1,.9,2.5,1.7,4.5,2.2,1.1.3,1.9.5,2.5.7.6.2,1,.4,1.2.6s.3.5.3.8-.2.7-.5.9c-.3.2-.8.4-1.4.4-1,0-1.9-.2-2.7-.6-.8-.4-1.7-1-2.5-2l-3.3,3.1c1.1,1.5,2.3,2.5,3.6,3.1Z"/>
  <path class="st0" d="M235.6,30.7V11.6h4.2l.7,2.2c.2-.2.5-.4.8-.6.8-.6,1.7-1.1,2.7-1.5,1-.4,2-.5,3.1-.5s2.3.2,3.1.7c.8.4,1.4,1,1.8,1.8,0,.1.1.2.2.3.3-.2.6-.5.9-.7.8-.6,1.7-1.1,2.7-1.5,1-.4,2-.5,3.1-.5s2.3.2,3.1.7c.8.4,1.4,1,1.8,1.8.4.8.7,1.6.8,2.6.2.9.2,1.9.2,2.9v11.7h-5.8v-11.4c0-1.1-.2-1.8-.6-2.2-.4-.4-.8-.5-1.4-.5-.8,0-1.6.2-2.4.7-.6.3-1.1.7-1.5,1.2,0,.1,0,.3,0,.4v11.7h-5.7v-11.4c0-1.1-.2-1.8-.6-2.2-.4-.4-.9-.5-1.4-.5s-1.6.2-2.4.7c-.5.3-1.1.7-1.5,1.2v12.1h-5.7Z"/>
  <path class="st0" d="M221.5,31.2c-1.4,0-2.6-.2-3.4-.6-.9-.4-1.5-1-2-1.7-.5-.8-.8-1.6-1-2.5-.2-1-.2-2-.2-3.1v-11.7h5.7v11.4c0,1.1.2,1.8.7,2.2.4.3,1,.5,1.6.5s1.1,0,1.7-.3c.5-.2,1.1-.5,1.6-.9.3-.2.5-.4.8-.7v-12.2h5.8v19.2h-4.3l-.7-2.2c-.2.2-.5.4-.7.6-.8.6-1.7,1.1-2.6,1.5-.9.4-1.9.5-2.9.5Z"/>
  <path class="st1" d="M188.3,31.2c-1.7,0-3.2-.4-4.4-1.1,0,0-.1,0-.2-.1,0,0-.1-.1-.2-.2v8.4h-5.7V11.6h4.3l.6,1.9c.4-.4.9-.8,1.4-1.2,1.3-.8,2.7-1.2,4.4-1.2s3.3.4,4.6,1.3c1.3.8,2.4,2,3.1,3.5.8,1.5,1.1,3.3,1.1,5.2s-.4,3.7-1.1,5.2c-.8,1.5-1.8,2.7-3.1,3.6-1.3.8-2.9,1.3-4.6,1.3ZM187.2,25.8c1.2,0,2.1-.4,2.9-1.3.8-.9,1.2-2,1.2-3.4s-.4-2.5-1.2-3.4c-.8-.9-1.7-1.3-2.9-1.3s-2.1.4-2.9,1.3c-.8.9-1.2,2-1.2,3.3s.4,2.5,1.2,3.4c.8.9,1.8,1.3,2.9,1.3Z"/>
  <path class="st1" d="M157,31.2c-2,0-3.7-.4-5.2-1.3-1.5-.9-2.7-2-3.5-3.6-.8-1.5-1.3-3.3-1.3-5.2s.4-3.7,1.3-5.2c.8-1.5,2-2.7,3.5-3.5,1.5-.9,3.3-1.3,5.2-1.3s3.8.4,5.3,1.3c1.5.8,2.7,2,3.5,3.5.9,1.5,1.3,3.3,1.3,5.2s-.4,3.7-1.3,5.2c-.8,1.5-2,2.7-3.5,3.6-1.5.8-3.3,1.3-5.3,1.3ZM157,25.6c1.3,0,2.3-.4,3.1-1.2.8-.8,1.2-1.9,1.2-3.3s-.4-2.5-1.2-3.3c-.8-.8-1.8-1.3-3.1-1.3s-2.2.4-3.1,1.3c-.8.8-1.2,1.9-1.2,3.3s.4,2.5,1.2,3.3c.8.8,1.8,1.2,3.1,1.2Z"/>
  <path class="st1" d="M132.4,38.1c1.1.3,2.1.5,3.1.5,2.1,0,3.8-.4,5.3-1.2,1.5-.8,2.6-2,3.4-3.6.8-1.6,1.2-3.5,1.2-5.8V11.6h-4.3l-.6,2.1c-.5-.5-1-1-1.6-1.4-1.2-.8-2.6-1.2-4.2-1.2s-3.2.4-4.5,1.2c-1.3.8-2.4,1.9-3.1,3.3-.7,1.4-1.1,3-1.1,4.8s.4,3.4,1.1,4.8c.8,1.4,1.8,2.5,3.1,3.3,1.3.8,2.9,1.2,4.6,1.2s3-.4,4.2-1.1c.2-.2.5-.3.7-.5v1.1c0,1.5-.4,2.7-1.1,3.4-.8.8-1.7,1.2-2.9,1.2s-1.9-.2-2.6-.7c-.7-.4-1.3-1.2-2-2.2l-4.1,2.1.3.7c.6,1.2,1.3,2.1,2.2,2.8.9.7,1.9,1.2,2.9,1.5ZM138.8,23.5c-.8.8-1.7,1.2-2.9,1.2s-2.2-.4-3-1.2c-.8-.8-1.1-1.8-1.1-3.1s.4-2.3,1.1-3.1c.8-.8,1.8-1.2,3-1.2s2.2.4,2.9,1.2c.8.8,1.2,1.9,1.2,3.1s-.4,2.2-1.2,3.1Z"/>
  <path class="st1" d="M115.4,31.2c-2,0-3.7-.4-5.2-1.3-1.5-.9-2.7-2-3.5-3.6-.8-1.5-1.3-3.3-1.3-5.2s.4-3.7,1.3-5.2c.8-1.5,2-2.7,3.5-3.5,1.5-.9,3.3-1.3,5.2-1.3s3.8.4,5.3,1.3c1.5.8,2.7,2,3.5,3.5.9,1.5,1.3,3.3,1.3,5.2s-.4,3.7-1.3,5.2c-.8,1.5-2,2.7-3.5,3.6-1.5.8-3.3,1.3-5.3,1.3ZM115.4,25.6c1.3,0,2.3-.4,3.1-1.2.8-.8,1.2-1.9,1.2-3.3s-.4-2.5-1.2-3.3c-.8-.8-1.8-1.3-3.1-1.3s-2.2.4-3.1,1.3c-.8.8-1.2,1.9-1.2,3.3s.4,2.5,1.2,3.3c.8.8,1.8,1.2,3.1,1.2Z"/>
  <path class="st0" d="M88.8,30.7h16.2v-5.5h-10.5V4h-5.7v26.7Z"/>
</svg>